<?xml version="1.0" encoding="utf-8"?>
<!-- Generator: Adobe Illustrator 16.0.4, SVG Export Plug-In . SVG Version: 6.00 Build 0)  -->
<!DOCTYPE svg PUBLIC "-//W3C//DTD SVG 1.1//EN" "http://www.w3.org/Graphics/SVG/1.1/DTD/svg11.dtd">
<svg version="1.1" id="Layer_1" xmlns="http://www.w3.org/2000/svg" xmlns:xlink="http://www.w3.org/1999/xlink" x="0px" y="0px"
	 width="24px" height="24px" viewBox="0 0 24 24" enable-background="new 0 0 24 24" xml:space="preserve">
<path fill="#FFFFFF" d="M23.416,20.586l-5.742-5.744c-0.066-0.064-0.141-0.116-0.211-0.172C18.432,13.183,19,11.409,19,9.5
	C19,4.253,14.748,0,9.5,0C4.254,0,0,4.253,0,9.5C0,14.749,4.254,19,9.5,19c1.908,0,3.684-0.568,5.174-1.539
	c0.055,0.072,0.105,0.145,0.17,0.209l5.742,5.744C20.979,23.806,21.49,24,22,24c0.512,0,1.023-0.194,1.416-0.584
	C24.195,22.635,24.195,21.37,23.416,20.586z M9.5,16C5.916,16,3,13.083,3,9.5C3,5.916,5.916,3,9.5,3C13.082,3,16,5.916,16,9.5
	C16,13.083,13.082,16,9.5,16z"/>
</svg>
